<svg width="34" height="29" viewBox="0 0 34 29" fill="none" xmlns="http://www.w3.org/2000/svg">
<path d="M17.0619 27.7505V27.7505L17.0532 27.7505C16.9326 27.7512 16.813 27.7281 16.7013 27.6825C16.5901 27.6371 16.489 27.5703 16.4035 27.4858C16.4032 27.4855 16.4028 27.4851 16.4024 27.4847L3.45731 14.523C3.45692 14.5226 3.45653 14.5222 3.45614 14.5218C1.97145 13.0209 1.13867 10.995 1.13867 8.88385C1.13867 6.77295 1.97124 4.74728 3.45558 3.2465C4.95192 1.75531 6.97833 0.917969 9.0909 0.917969C11.2041 0.917969 13.2312 1.75585 14.7277 3.24793C14.7278 3.24804 14.7279 3.24815 14.728 3.24826L16.5272 5.04751L17.0576 5.57784L17.5879 5.04751L19.3871 3.24826C19.3872 3.24818 19.3873 3.2481 19.3874 3.24801C20.8839 1.75588 22.9109 0.917969 25.0242 0.917969C27.1368 0.917969 29.1632 1.7553 30.6595 3.24647C32.1439 4.74725 32.9765 6.77294 32.9765 8.88385C32.9765 10.995 32.1437 13.021 30.6589 14.5218C30.6586 14.5222 30.6582 14.5226 30.6578 14.523L17.7127 27.4847C17.7124 27.485 17.7121 27.4854 17.7117 27.4857C17.6263 27.5702 17.5251 27.637 17.4138 27.6825C17.3021 27.7281 17.1825 27.7512 17.0619 27.7505Z" stroke="#2D3748" stroke-width="1.5"/>
</svg>
