<svg width="16" height="16" viewBox="0 0 16 16" fill="none" xmlns="http://www.w3.org/2000/svg">
<path d="M7.71606 1.57408C7.86506 1.27218 8.29556 1.27218 8.44456 1.57408L10.3733 5.48223C10.4325 5.60212 10.5469 5.68521 10.6792 5.70444L14.9921 6.33114C15.3253 6.37955 15.4583 6.78898 15.2172 7.02398L12.0964 10.066C12.0006 10.1594 11.9569 10.2938 11.9795 10.4256L12.7163 14.7211C12.7732 15.0529 12.4249 15.3059 12.1269 15.1493L8.26933 13.1212C8.151 13.059 8.00963 13.059 7.89129 13.1212L4.03372 15.1493C3.73573 15.3059 3.38744 15.0529 3.44435 14.7211L4.18109 10.4256C4.20369 10.2938 4.16 10.1594 4.06427 10.066L0.943422 7.02398C0.702339 6.78898 0.835372 6.37955 1.16854 6.33114L5.48144 5.70444C5.61374 5.68521 5.72811 5.60212 5.78728 5.48223L7.71606 1.57408Z" fill="#FFDB71" stroke="#FFDB71" stroke-width="1.21" stroke-linejoin="round"/>
</svg>
