<svg width="22" height="22" viewBox="0 0 22 22" fill="none" xmlns="http://www.w3.org/2000/svg">
<path d="M8.12039 8.12039V7.37039C7.70618 7.37039 7.37039 7.70618 7.37039 8.12039H8.12039ZM8.21601 8.12039H8.96601C8.96601 7.70618 8.63023 7.37039 8.21601 7.37039V8.12039ZM13.8804 8.12039V7.37039C13.4662 7.37039 13.1304 7.70618 13.1304 8.12039H13.8804ZM13.9654 8.12039H14.7154C14.7154 7.70618 14.3796 7.37039 13.9654 7.37039V8.12039ZM8.21601 8.19726V8.94726C8.63023 8.94726 8.96601 8.61148 8.96601 8.19726H8.21601ZM8.12039 8.19726H7.37039C7.37039 8.61148 7.70618 8.94726 8.12039 8.94726V8.19726ZM13.9654 8.19726V8.94726C14.3796 8.94726 14.7154 8.61148 14.7154 8.19726H13.9654ZM13.8804 8.19726H13.1304C13.1304 8.61148 13.4662 8.94726 13.8804 8.94726V8.19726ZM8.31005 13.5248C8.09204 13.1726 7.62979 13.0638 7.2776 13.2818C6.9254 13.4998 6.81662 13.9621 7.03463 14.3143L8.31005 13.5248ZM14.9661 14.3143C15.1842 13.9621 15.0754 13.4998 14.7232 13.2818C14.371 13.0638 13.9087 13.1726 13.6907 13.5248L14.9661 14.3143ZM19.8504 11.0004C19.8504 15.8881 15.8881 19.8504 11.0004 19.8504V21.3504C16.7165 21.3504 21.3504 16.7165 21.3504 11.0004H19.8504ZM11.0004 19.8504C6.11267 19.8504 2.15039 15.8881 2.15039 11.0004H0.650391C0.650391 16.7165 5.28424 21.3504 11.0004 21.3504V19.8504ZM2.15039 11.0004C2.15039 6.11267 6.11267 2.15039 11.0004 2.15039V0.650391C5.28424 0.650391 0.650391 5.28424 0.650391 11.0004H2.15039ZM11.0004 2.15039C15.8881 2.15039 19.8504 6.11267 19.8504 11.0004H21.3504C21.3504 5.28424 16.7165 0.650391 11.0004 0.650391V2.15039ZM8.12039 8.87039H8.21601V7.37039H8.12039V8.87039ZM13.8804 8.87039H13.9654V7.37039H13.8804V8.87039ZM7.46601 8.12039V8.19726H8.96601V8.12039H7.46601ZM8.21601 7.44726H8.12039V8.94726H8.21601V7.44726ZM8.87039 8.19726V8.12039H7.37039V8.19726H8.87039ZM13.2154 8.12039V8.19726H14.7154V8.12039H13.2154ZM13.9654 7.44726H13.8804V8.94726H13.9654V7.44726ZM14.6304 8.19726V8.12039H13.1304V8.19726H14.6304ZM11.0004 15.0503C9.87827 15.0503 8.88263 14.4498 8.31005 13.5248L7.03463 14.3143C7.86193 15.6508 9.3242 16.5503 11.0004 16.5503V15.0503ZM13.6907 13.5248C13.1181 14.4498 12.1225 15.0503 11.0004 15.0503V16.5503C12.6766 16.5503 14.1388 15.6508 14.9661 14.3143L13.6907 13.5248Z" fill="black"/>
</svg>
