<svg width="22" height="22" viewBox="0 0 22 22" fill="none" xmlns="http://www.w3.org/2000/svg">
<path d="M2.07006 18.2701C1.77717 18.563 1.77717 19.0378 2.07006 19.3307C2.36295 19.6236 2.83783 19.6236 3.13072 19.3307L2.07006 18.2701ZM7.40039 14.0004L7.93072 13.4701C7.63783 13.1772 7.16295 13.1772 6.87006 13.4701L7.40039 14.0004ZM9.80039 16.4004L9.27006 16.9307C9.56295 17.2236 10.0378 17.2236 10.3307 16.9307L9.80039 16.4004ZM15.2004 11.0004L15.7307 10.4701C15.4378 10.1772 14.963 10.1772 14.6701 10.4701L15.2004 11.0004ZM19.4701 16.3307C19.763 16.6236 20.2378 16.6236 20.5307 16.3307C20.8236 16.0378 20.8236 15.563 20.5307 15.2701L19.4701 16.3307ZM3.13072 19.3307L7.93072 14.5307L6.87006 13.4701L2.07006 18.2701L3.13072 19.3307ZM6.87006 14.5307L9.27006 16.9307L10.3307 15.8701L7.93072 13.4701L6.87006 14.5307ZM10.3307 16.9307L15.7307 11.5307L14.6701 10.4701L9.27006 15.8701L10.3307 16.9307ZM14.6701 11.5307L19.4701 16.3307L20.5307 15.2701L15.7307 10.4701L14.6701 11.5307ZM5.00039 2.15039H17.0004V0.650391H5.00039V2.15039ZM19.8504 5.00039V17.0004H21.3504V5.00039H19.8504ZM17.0004 19.8504H5.00039V21.3504H17.0004V19.8504ZM2.15039 17.0004V5.00039H0.650391V17.0004H2.15039ZM5.00039 19.8504C3.42638 19.8504 2.15039 18.5744 2.15039 17.0004H0.650391C0.650391 19.4028 2.59795 21.3504 5.00039 21.3504V19.8504ZM19.8504 17.0004C19.8504 18.5744 18.5744 19.8504 17.0004 19.8504V21.3504C19.4028 21.3504 21.3504 19.4028 21.3504 17.0004H19.8504ZM17.0004 2.15039C18.5744 2.15039 19.8504 3.42638 19.8504 5.00039H21.3504C21.3504 2.59795 19.4028 0.650391 17.0004 0.650391V2.15039ZM5.00039 0.650391C2.59795 0.650391 0.650391 2.59795 0.650391 5.00039H2.15039C2.15039 3.42638 3.42638 2.15039 5.00039 2.15039V0.650391ZM7.85039 6.80039C7.85039 7.38029 7.38029 7.85039 6.80039 7.85039V9.35039C8.20872 9.35039 9.35039 8.20872 9.35039 6.80039H7.85039ZM6.80039 7.85039C6.22049 7.85039 5.75039 7.38029 5.75039 6.80039H4.25039C4.25039 8.20872 5.39206 9.35039 6.80039 9.35039V7.85039ZM5.75039 6.80039C5.75039 6.22049 6.22049 5.75039 6.80039 5.75039V4.25039C5.39206 4.25039 4.25039 5.39206 4.25039 6.80039H5.75039ZM6.80039 5.75039C7.38029 5.75039 7.85039 6.22049 7.85039 6.80039H9.35039C9.35039 5.39206 8.20872 4.25039 6.80039 4.25039V5.75039Z" fill="black"/>
</svg>
