<svg width="22" height="22" viewBox="0 0 22 22" fill="none" xmlns="http://www.w3.org/2000/svg">
<path d="M20.8465 11.6008C20.8465 11.1866 20.5107 10.8508 20.0965 10.8508C19.6823 10.8508 19.3465 11.1866 19.3465 11.6008H20.8465ZM10.4965 2.75078C10.9107 2.75078 11.2465 2.41499 11.2465 2.00078C11.2465 1.58657 10.9107 1.25078 10.4965 1.25078V2.75078ZM16.0465 11.6008C16.0465 11.1866 15.7107 10.8508 15.2965 10.8508C14.8823 10.8508 14.5465 11.1866 14.5465 11.6008H16.0465ZM10.4965 7.55078C10.9107 7.55078 11.2465 7.21499 11.2465 6.80078C11.2465 6.38657 10.9107 6.05078 10.4965 6.05078V7.55078ZM15.2695 7.69498C15.5623 7.40209 15.5623 6.92721 15.2695 6.63432C14.9766 6.34143 14.5017 6.34143 14.2088 6.63432L15.2695 7.69498ZM9.96615 10.877C9.67326 11.1699 9.67326 11.6447 9.96615 11.9376C10.259 12.2305 10.7339 12.2305 11.0268 11.9376L9.96615 10.877ZM21.1051 4.19489L21.6354 4.72522C21.8363 4.52435 21.9065 4.22722 21.8166 3.95772C21.7268 3.68822 21.4924 3.49261 21.2112 3.45243L21.1051 4.19489ZM17.2867 8.01327L17.0496 8.72478C17.3191 8.81462 17.6162 8.74447 17.8171 8.5436L17.2867 8.01327ZM13.8926 4.61916L13.3623 4.08883C13.1614 4.2897 13.0913 4.58683 13.1811 4.85633L13.8926 4.61916ZM17.711 0.800781L18.4535 0.694715C18.4133 0.413491 18.2177 0.179102 17.9482 0.0892687C17.6787 -0.000564873 17.3815 0.069577 17.1807 0.270451L17.711 0.800781ZM14.7412 7.16474L14.0296 7.40191C14.1043 7.62587 14.28 7.8016 14.504 7.87626L14.7412 7.16474ZM18.1353 3.77063L17.3928 3.8767C17.4399 4.20668 17.6992 4.46595 18.0292 4.51309L18.1353 3.77063ZM19.3465 11.6008C19.3465 16.4885 15.3842 20.4508 10.4965 20.4508V21.9508C16.2126 21.9508 20.8465 17.3169 20.8465 11.6008H19.3465ZM10.4965 20.4508C5.60876 20.4508 1.64648 16.4885 1.64648 11.6008H0.146484C0.146484 17.3169 4.78034 21.9508 10.4965 21.9508V20.4508ZM1.64648 11.6008C1.64648 6.71306 5.60876 2.75078 10.4965 2.75078V1.25078C4.78034 1.25078 0.146484 5.88463 0.146484 11.6008H1.64648ZM14.5465 11.6008C14.5465 13.8375 12.7332 15.6508 10.4965 15.6508V17.1508C13.5617 17.1508 16.0465 14.666 16.0465 11.6008H14.5465ZM10.4965 15.6508C8.25973 15.6508 6.44648 13.8375 6.44648 11.6008H4.94648C4.94648 14.666 7.4313 17.1508 10.4965 17.1508V15.6508ZM6.44648 11.6008C6.44648 9.36403 8.25973 7.55078 10.4965 7.55078V6.05078C7.4313 6.05078 4.94648 8.5356 4.94648 11.6008H6.44648ZM14.2088 6.63432L9.96615 10.877L11.0268 11.9376L15.2695 7.69498L14.2088 6.63432ZM20.5748 3.66456L16.7564 7.48294L17.8171 8.5436L21.6354 4.72522L20.5748 3.66456ZM14.423 5.14949L18.2413 1.33111L17.1807 0.270451L13.3623 4.08883L14.423 5.14949ZM17.5239 7.30176L14.9783 6.45323L14.504 7.87626L17.0496 8.72478L17.5239 7.30176ZM15.4527 6.92757L14.6041 4.38199L13.1811 4.85633L14.0296 7.40191L15.4527 6.92757ZM16.9685 0.906847L17.3928 3.8767L18.8777 3.66456L18.4535 0.694715L16.9685 0.906847ZM18.0292 4.51309L20.999 4.93736L21.2112 3.45243L18.2413 3.02817L18.0292 4.51309Z" fill="black"/>
</svg>
