<svg width="24" height="24" viewBox="0 0 24 24" fill="none" xmlns="http://www.w3.org/2000/svg">
<path d="M12 16.8001C13.3255 16.8001 14.4 17.8746 14.4 19.2001C14.4 20.5256 13.3255 21.6001 12 21.6001C10.6745 21.6001 9.59998 20.5256 9.59998 19.2001C9.59998 17.8746 10.6745 16.8001 12 16.8001Z" fill="#2D3748"/>
<path d="M12 9.6001C13.3255 9.6001 14.4 10.6746 14.4 12.0001C14.4 13.3256 13.3255 14.4001 12 14.4001C10.6745 14.4001 9.59998 13.3256 9.59998 12.0001C9.59998 10.6746 10.6745 9.6001 12 9.6001Z" fill="#2D3748"/>
<path d="M12 2.4001C13.3255 2.4001 14.4 3.47461 14.4 4.8001C14.4 6.12558 13.3255 7.2001 12 7.2001C10.6745 7.2001 9.59998 6.12558 9.59998 4.8001C9.59998 3.47461 10.6745 2.4001 12 2.4001Z" fill="#2D3748"/>
</svg>
