<svg width="30" height="26" viewBox="0 0 30 26" fill="none" xmlns="http://www.w3.org/2000/svg">
<g filter="url(#filter0_d_1257_10962)">
<path d="M22.1999 10.6855C23.4672 11.6324 24.5999 14.0165 24.5999 15.4855C24.5999 15.9431 24.266 16.3141 23.8541 16.3141H23.3999M18.5999 6.80432C19.4197 6.33006 19.9713 5.44365 19.9713 4.4284C19.9713 3.41316 19.4197 2.52675 18.5999 2.05249M6.14567 16.3141H19.2827C19.6946 16.3141 20.0285 15.9431 20.0285 15.4855C20.0285 12.6089 17.6252 10.2769 12.7142 10.2769C7.80317 10.2769 5.3999 12.6089 5.3999 15.4855C5.3999 15.9431 5.7338 16.3141 6.14567 16.3141ZM15.457 4.4284C15.457 5.94324 14.229 7.17126 12.7142 7.17126C11.1993 7.17126 9.97133 5.94324 9.97133 4.4284C9.97133 2.91357 11.1993 1.68555 12.7142 1.68555C14.229 1.68555 15.457 2.91357 15.457 4.4284Z" stroke="#505B62" stroke-width="1.5" stroke-linecap="round" shape-rendering="crispEdges"/>
</g>
<defs>
<filter id="filter0_d_1257_10962" x="0.649902" y="0.935547" width="28.7" height="24.1284" filterUnits="userSpaceOnUse" color-interpolation-filters="sRGB">
<feFlood flood-opacity="0" result="BackgroundImageFix"/>
<feColorMatrix in="SourceAlpha" type="matrix" values="0 0 0 0 0 0 0 0 0 0 0 0 0 0 0 0 0 0 127 0" result="hardAlpha"/>
<feOffset dy="4"/>
<feGaussianBlur stdDeviation="2"/>
<feComposite in2="hardAlpha" operator="out"/>
<feColorMatrix type="matrix" values="0 0 0 0 0 0 0 0 0 0 0 0 0 0 0 0 0 0 0.25 0"/>
<feBlend mode="normal" in2="BackgroundImageFix" result="effect1_dropShadow_1257_10962"/>
<feBlend mode="normal" in="SourceGraphic" in2="effect1_dropShadow_1257_10962" result="shape"/>
</filter>
</defs>
</svg>
