<svg width="32" height="32" viewBox="0 0 32 32" fill="none" xmlns="http://www.w3.org/2000/svg">
<path fill-rule="evenodd" clip-rule="evenodd" d="M16 0C7.16704 0 0 7.16704 0 16C0 24.833 7.16704 32 16 32C24.8156 32 32 24.833 32 16C32 7.16704 24.8156 0 16 0ZM26.5683 7.37526C28.4772 9.70064 29.6226 12.6681 29.6573 15.8785L29.6118 15.8697C28.9617 15.743 24.571 14.8875 20.1475 15.4447C20.0868 15.313 20.0319 15.1755 19.9761 15.0355L19.9761 15.0354L19.976 15.0354L19.976 15.0354L19.976 15.0354L19.976 15.0354C19.9362 14.9355 19.8959 14.8343 19.8525 14.7332C19.5748 14.0738 19.2625 13.397 18.9501 12.7549C23.9827 10.7072 26.2733 7.75706 26.5683 7.37526ZM25.0586 5.7961C22.6464 3.6616 19.4707 2.36009 16 2.36009C14.8894 2.36009 13.8134 2.48156 12.7896 2.72451L12.808 2.74954C13.2449 3.34512 15.6861 6.6727 17.8916 10.7245C22.7505 8.9024 24.8156 6.14317 25.0586 5.7961ZM10.1866 3.64426C10.551 4.13014 12.9805 7.51411 15.2538 11.5401C8.97746 13.2115 3.4219 13.2068 2.65615 13.2061L2.62039 13.2061C3.50541 8.97181 6.36877 5.44902 10.1866 3.64426ZM2.32538 15.6009V16.0173C2.32538 19.5228 3.6616 22.7332 5.83082 25.1453C6.14317 24.6247 9.89155 18.4122 16.9371 16.1388C17.0236 16.1129 17.1144 16.0869 17.2052 16.061C17.2966 16.0349 17.388 16.0088 17.475 15.9827C17.128 15.2017 16.7636 14.4208 16.3644 13.6573C9.54448 15.705 2.9154 15.6182 2.32538 15.6009ZM16 29.6746C12.8417 29.6746 9.92624 28.5987 7.61821 26.7939C7.86118 26.2907 10.6378 20.9458 18.3427 18.256C18.3601 18.2473 18.3731 18.243 18.3861 18.2386C18.3991 18.2343 18.4121 18.2299 18.4295 18.2212C20.3557 23.2017 21.1367 27.3839 21.3449 28.5813C19.6963 29.2928 17.8916 29.6746 16 29.6746ZM20.9631 17.5965C22.7506 22.5076 23.4794 26.4989 23.6182 27.3319C26.6898 25.2668 28.8764 21.987 29.4664 18.1866C28.9978 18.0304 25.2495 16.9197 20.9631 17.5965Z" fill="black"/>
</svg>
