<svg width="32" height="22" viewBox="0 0 32 22" fill="none" xmlns="http://www.w3.org/2000/svg">
<path fill-rule="evenodd" clip-rule="evenodd" d="M5.05956e-07 21.3887V1.01907C5.05956e-07 0.826637 0.0635411 0.71972 0.19062 0.698317C0.55056 0.677253 1.10134 0.661217 1.84297 0.650208C2.58425 0.639652 3.38922 0.628951 4.25789 0.618104C5.12628 0.607596 5.92069 0.602245 6.64111 0.602051C8.37788 0.602051 9.76011 0.794532 10.7878 1.17949C11.8151 1.56441 12.6042 2.05092 13.1551 2.63904C13.6641 3.15726 14.0451 3.78913 14.2673 4.48354C14.4468 5.05456 14.5431 5.64886 14.5532 6.24783C14.5645 6.88791 14.4567 7.52443 14.2355 8.1244C14.0537 8.61639 13.7963 9.07646 13.4728 9.48772C13.2317 9.80011 12.942 10.0709 12.615 10.2897C13.067 10.5315 13.4885 10.8277 13.8701 11.1718C14.3644 11.6191 14.7689 12.1582 15.0617 12.7597C15.4236 13.5304 15.5979 14.3772 15.57 15.2297C15.5899 16.4497 15.2163 17.6431 14.5055 18.63C13.7956 19.6138 12.7788 20.3784 11.4552 20.9236C10.1309 21.4689 8.54743 21.7416 6.70462 21.7415H4.59152C3.92426 21.7415 3.30994 21.7362 2.74855 21.7255C2.18701 21.7145 1.69979 21.7038 1.28691 21.6934C0.873779 21.6824 0.518946 21.677 0.222418 21.6774C0.0739153 21.6563 -0.000223471 21.5601 5.05956e-07 21.3887ZM4.2897 4.41938V8.87822H6.4504C7.02245 8.87822 7.58383 8.8889 8.13455 8.91027C8.52972 8.91324 8.92359 8.95623 9.31025 9.03859C9.5908 8.79671 9.82272 8.50268 9.99341 8.17249C10.1859 7.77348 10.2787 7.33294 10.2635 6.88938C10.2856 6.38556 10.1402 5.88876 9.8504 5.47794C9.54251 5.09187 9.12772 4.80711 8.65889 4.65996C8.01606 4.46034 7.3452 4.36822 6.67291 4.38726H5.75133C5.47581 4.38726 5.22692 4.39261 5.00466 4.40331C4.78224 4.41436 4.54392 4.41972 4.2897 4.41938ZM4.2897 17.9563V12.6634L7.02245 12.6635C7.41001 12.6602 7.79737 12.6817 8.18226 12.7276C8.47631 12.7642 8.76805 12.8178 9.05604 12.888C9.79734 13.0806 10.3058 13.3907 10.5813 13.8182C10.8629 14.2688 11.0066 14.7933 10.9944 15.3259C11.0116 15.8741 10.8309 16.4099 10.486 16.8336C10.0834 17.2789 9.55754 17.5919 8.97663 17.7318C8.22564 17.9351 7.45035 18.0322 6.67291 18.0205C6.16431 18.0208 5.73003 18.0155 5.37009 18.0044C5.00977 17.9939 4.64964 17.9779 4.2897 17.9563Z" fill="black"/>
<path fill-rule="evenodd" clip-rule="evenodd" d="M22.6896 16.5611C22.3689 16.051 22.1628 15.4761 22.0859 14.8769L31.5521 14.8705C31.6961 14.8653 31.8161 14.7576 31.838 14.6138C31.8433 14.5705 31.8512 14.5124 31.8606 14.4436C31.8882 14.241 31.9285 13.9453 31.9523 13.658C31.984 13.2732 31.9999 12.8455 31.9999 12.3749C31.9975 11.5473 31.8689 10.725 31.6186 9.93693C31.3615 9.11916 30.9635 8.35359 30.4429 7.67541C29.8914 6.9632 29.1773 6.39638 28.3616 6.02339C27.3963 5.59513 26.3493 5.38703 25.2952 5.41393C24.1559 5.38575 23.0254 5.62168 21.9905 6.1036C21.0704 6.55383 20.2574 7.19942 19.6073 7.9962C18.9483 8.80245 18.4469 9.72773 18.1298 10.7229C17.8006 11.743 17.6343 12.8096 17.6372 13.8825C17.637 14.8652 17.7761 15.8428 18.0504 16.7856C18.3273 17.7408 18.792 18.63 19.4167 19.4C20.0856 20.2171 20.9343 20.8652 21.8952 21.2926C22.9117 21.7631 24.1722 21.9983 25.6766 21.9983C26.6143 22.0131 27.5511 21.9325 28.4728 21.7577C29.1866 21.6138 29.8803 21.3822 30.5382 21.068C30.596 21.0313 30.6449 20.982 30.6812 20.9237C30.7177 20.8491 30.7341 20.7661 30.7289 20.6831V17.6357C30.7289 17.4432 30.6758 17.3901 30.57 17.4753C29.9735 17.733 29.3499 17.9214 28.7112 18.0367C28.0345 18.157 27.3486 18.216 26.6616 18.2131C25.6234 18.2134 24.7813 18.0637 24.1354 17.764C23.5476 17.514 23.045 17.0958 22.6896 16.5611ZM26.2485 11.7654H22.0859C22.153 11.3054 22.2982 10.8604 22.5149 10.4502C23.0153 9.46728 24.0437 8.8758 25.1364 8.94251C26.3042 8.8976 27.3578 9.64606 27.7102 10.771C27.7881 11.0093 27.8309 11.2578 27.8373 11.5087V11.7012C27.6858 11.7333 27.5314 11.7494 27.3765 11.7493C27.1329 11.76 26.7569 11.7654 26.2485 11.7654Z" fill="black"/>
<path d="M20.0842 0H29.5851C29.7333 0 29.8078 0.0858736 29.8078 0.257011V2.85932C29.8179 2.93011 29.7943 3.00155 29.7442 3.05212C29.6941 3.10268 29.6234 3.12648 29.5532 3.11633H20.0524C19.9037 3.11633 19.8296 3.03101 19.8296 2.85932V0.224913C19.8296 0.0753397 19.9141 0 20.0842 0Z" fill="black"/>
</svg>
