<svg width="32" height="26" viewBox="0 0 32 26" fill="none" xmlns="http://www.w3.org/2000/svg">
<path d="M28.7239 6.47263C28.7435 6.75471 28.7434 7.0368 28.7434 7.32148C28.7434 15.9958 22.1393 26 10.0635 26V25.9948C6.4962 26 3.00305 24.9783 0 23.0518C0.518708 23.1142 1.04002 23.1454 1.56262 23.1467C4.51887 23.1493 7.39062 22.1574 9.71635 20.3311C6.90701 20.2778 4.44347 18.4462 3.58286 15.7722C4.56697 15.962 5.58099 15.923 6.5469 15.6592C3.48405 15.0404 1.28052 12.3496 1.28052 9.22456C1.28052 9.19596 1.28052 9.16866 1.28052 9.14136C2.19313 9.64963 3.21495 9.93171 4.26017 9.96291C1.37542 8.03513 0.486208 4.19778 2.22823 1.19757C5.56149 5.29881 10.4795 7.79205 15.7588 8.05593C15.2297 5.77588 15.9525 3.38663 17.6582 1.78383C20.3024 -0.701614 24.4612 -0.574223 26.9468 2.06851C28.4171 1.77863 29.8264 1.23916 31.116 0.474811C30.6259 1.99442 29.6002 3.28523 28.2299 4.10548C29.5313 3.95209 30.8027 3.60371 32 3.07205C31.1186 4.39276 30.0084 5.54319 28.7239 6.47263Z" fill="black"/>
</svg>
