<svg width="30" height="25" viewBox="0 0 30 25" fill="none" xmlns="http://www.w3.org/2000/svg">
<path d="M15.0002 24C14.8247 24.001 14.6507 23.9674 14.4883 23.9011C14.3258 23.8347 14.1781 23.7369 14.0535 23.6134L3.69349 13.24C2.39397 11.9269 1.66504 10.1541 1.66504 8.30669C1.66504 6.45926 2.39397 4.68645 3.69349 3.37336C5.00317 2.06737 6.77726 1.33398 8.62682 1.33398C10.4764 1.33398 12.2505 2.06737 13.5602 3.37336L15.0002 4.81336L16.4402 3.37336C17.7498 2.06737 19.5239 1.33398 21.3735 1.33398C23.223 1.33398 24.9971 2.06737 26.3068 3.37336C27.6063 4.68645 28.3353 6.45926 28.3353 8.30669C28.3353 10.1541 27.6063 11.9269 26.3068 13.24L15.9468 23.6134C15.8222 23.7369 15.6745 23.8347 15.512 23.9011C15.3496 23.9674 15.1756 24.001 15.0002 24Z" stroke="#295576" stroke-width="2"/>
</svg>
