<svg width="40" height="40" viewBox="0 0 40 40" fill="none" xmlns="http://www.w3.org/2000/svg">
<g id="Logo Icons">
<circle id="Box" cx="20" cy="20" r="20" fill="#F7F7F7"/>
<g id="Logo">
<path id="1" d="M32.5 20.3C32.5 19.4222 32.423 18.5889 32.291 17.7778H19.8638V22.7889H26.9792C26.6603 24.4333 25.7255 25.8222 24.3398 26.7667V30.1H28.5849C31.0703 27.7778 32.5 24.3555 32.5 20.3Z" fill="#4285F4"/>
<path id="2" d="M19.8639 33.3333C23.4271 33.3333 26.4074 32.1333 28.585 30.1L24.3399 26.7667C23.1521 27.5667 21.6455 28.0555 19.8639 28.0555C16.4216 28.0555 13.5073 25.7111 12.4625 22.5444H8.08545V25.9778C10.252 30.3333 14.706 33.3333 19.8639 33.3333Z" fill="#34A853"/>
<path id="3" d="M12.4625 22.5444C12.1875 21.7444 12.0446 20.8889 12.0446 20C12.0446 19.1111 12.1985 18.2555 12.4625 17.4555V14.0222H8.08544C7.18363 15.8222 6.66675 17.8444 6.66675 20C6.66675 22.1556 7.18363 24.1778 8.08544 25.9778L12.4625 22.5444Z" fill="#FBBC05"/>
<path id="4" d="M19.8639 11.9444C21.8104 11.9444 23.5481 12.6222 24.9228 13.9444L28.6839 10.1444C26.4074 7.98888 23.4271 6.66666 19.8639 6.66666C14.706 6.66666 10.252 9.66666 8.08545 14.0222L12.4625 17.4555C13.5073 14.2889 16.4216 11.9444 19.8639 11.9444Z" fill="#EA4335"/>
</g>
</g>
</svg>
