<svg width="40" height="40" viewBox="0 0 40 40" fill="none" xmlns="http://www.w3.org/2000/svg">
<g id="Logo Icons">
<circle id="Box" cx="20" cy="20" r="20" fill="#0A66C2"/>
<g id="Logo">
<path id="Path" d="M30.8315 29.1667H26.6905V22.6704C26.6905 21.1213 26.6629 19.1271 24.5368 19.1271C22.38 19.1271 22.05 20.8148 22.05 22.5576V29.1662H17.9092V15.8072H21.8844V17.6328H21.9402C22.7496 16.2465 24.2601 15.4154 25.8624 15.475C30.0594 15.475 30.8333 18.2404 30.8333 21.8382L30.8315 29.1667Z" fill="white"/>
<path id="Path_2" d="M13.2368 13.9811C13.2366 13.9811 13.2364 13.9811 13.2363 13.9811C11.918 13.9811 10.8333 12.8945 10.8333 11.5739C10.8333 10.2533 11.918 9.16666 13.2363 9.16666C14.5545 9.16666 15.6391 10.2531 15.6394 11.5734C15.6394 11.5736 15.6394 11.5737 15.6394 11.5739C15.6394 12.8943 14.5548 13.981 13.2368 13.9811Z" fill="white"/>
<path id="Path_3" d="M15.3073 29.1667H11.1621V15.8072H15.3073V29.1667Z" fill="white"/>
</g>
</g>
</svg>
