<svg width="16" height="16" viewBox="0 0 16 16" fill="none" xmlns="http://www.w3.org/2000/svg">
<g id="lock">
<path id="Vector" d="M12.6667 7.33594H3.33333C2.59695 7.33594 2 7.93289 2 8.66927V13.3359C2 14.0723 2.59695 14.6693 3.33333 14.6693H12.6667C13.403 14.6693 14 14.0723 14 13.3359V8.66927C14 7.93289 13.403 7.33594 12.6667 7.33594Z" stroke="#969696" stroke-width="2" stroke-linecap="round" stroke-linejoin="round"/>
<path id="Vector_2" d="M4.66797 7.33594V4.66927C4.66797 3.78522 5.01916 2.93737 5.64428 2.31225C6.2694 1.68713 7.11725 1.33594 8.0013 1.33594C8.88536 1.33594 9.7332 1.68713 10.3583 2.31225C10.9834 2.93737 11.3346 3.78522 11.3346 4.66927V7.33594" stroke="#969696" stroke-width="2" stroke-linecap="round" stroke-linejoin="round"/>
</g>
</svg>
