<svg width="40" height="40" viewBox="0 0 40 40" fill="none" xmlns="http://www.w3.org/2000/svg">
<g id="Logo Icons">
<circle id="Box" cx="20" cy="20" r="20" fill="#1D9BF0"/>
<path id="Logo" d="M30.6034 14.5605C30.6196 14.7956 30.6196 15.0307 30.6196 15.2679C30.6196 22.4965 25.1162 30.8333 15.053 30.8333V30.829C12.0802 30.8333 9.16929 29.9819 6.66675 28.3765C7.099 28.4285 7.53343 28.4545 7.96894 28.4556C10.4325 28.4577 12.8256 27.6312 14.7637 26.1092C12.4226 26.0648 10.3696 24.5385 9.65246 22.3102C10.4726 22.4684 11.3176 22.4359 12.1225 22.216C9.57013 21.7003 7.73385 19.458 7.73385 16.8538C7.73385 16.83 7.73385 16.8072 7.73385 16.7845C8.49436 17.208 9.34587 17.4431 10.2169 17.4691C7.81293 15.8626 7.07192 12.6648 8.52361 10.1646C11.3013 13.5823 15.3996 15.66 19.7991 15.8799C19.3582 13.9799 19.9605 11.9888 21.3819 10.6532C23.5854 8.58198 27.0511 8.68814 29.1224 10.8904C30.3477 10.6488 31.5221 10.1993 32.5967 9.56233C32.1883 10.8287 31.3335 11.9044 30.1917 12.5879C31.2761 12.4601 32.3356 12.1698 33.3334 11.7267C32.5989 12.8273 31.6737 13.786 30.6034 14.5605Z" fill="white"/>
</g>
</svg>
