<svg width="20" height="6" viewBox="0 0 20 6" fill="none" xmlns="http://www.w3.org/2000/svg">
<path d="M5.20039 2.99961C5.20039 4.32509 4.12587 5.39961 2.80039 5.39961C1.47491 5.39961 0.400391 4.32509 0.400391 2.99961C0.400391 1.67413 1.47491 0.599609 2.80039 0.599609C4.12587 0.599609 5.20039 1.67413 5.20039 2.99961Z" fill="#2D3748"/>
<path d="M12.4004 2.99961C12.4004 4.32509 11.3259 5.39961 10.0004 5.39961C8.67491 5.39961 7.60039 4.32509 7.60039 2.99961C7.60039 1.67413 8.67491 0.599609 10.0004 0.599609C11.3259 0.599609 12.4004 1.67413 12.4004 2.99961Z" fill="#2D3748"/>
<path d="M19.6004 2.99961C19.6004 4.32509 18.5259 5.39961 17.2004 5.39961C15.8749 5.39961 14.8004 4.32509 14.8004 2.99961C14.8004 1.67413 15.8749 0.599609 17.2004 0.599609C18.5259 0.599609 19.6004 1.67413 19.6004 2.99961Z" fill="#2D3748"/>
</svg>
