<svg width="22" height="22" viewBox="0 0 22 22" fill="none" xmlns="http://www.w3.org/2000/svg">
<path d="M6.27755 9.71708C5.95934 9.98225 5.91635 10.4552 6.18152 10.7734C6.4467 11.0916 6.91962 11.1346 7.23783 10.8694L6.27755 9.71708ZM11.0004 6.75769L11.4805 6.18152C11.2024 5.94974 10.7984 5.94974 10.5202 6.18152L11.0004 6.75769ZM14.7629 10.8694C15.0811 11.1346 15.554 11.0916 15.8192 10.7734C16.0844 10.4552 16.0414 9.98226 15.7232 9.71708L14.7629 10.8694ZM10.2504 15.243C10.2504 15.6572 10.5861 15.993 11.0004 15.993C11.4146 15.993 11.7504 15.6572 11.7504 15.243H10.2504ZM7.23783 10.8694L11.4805 7.33386L10.5202 6.18152L6.27755 9.71708L7.23783 10.8694ZM10.5202 7.33386L14.7629 10.8694L15.7232 9.71708L11.4805 6.18152L10.5202 7.33386ZM10.2504 6.75769V15.243H11.7504V6.75769H10.2504ZM17.2583 4.7425C20.7144 8.19864 20.7144 13.8021 17.2583 17.2583L18.3189 18.3189C22.3609 14.277 22.3609 7.72376 18.3189 3.68184L17.2583 4.7425ZM17.2583 17.2583C13.8021 20.7144 8.19864 20.7144 4.7425 17.2583L3.68184 18.3189C7.72376 22.3609 14.277 22.3609 18.3189 18.3189L17.2583 17.2583ZM4.7425 17.2583C1.28636 13.8021 1.28636 8.19864 4.7425 4.7425L3.68184 3.68184C-0.360091 7.72376 -0.360091 14.277 3.68184 18.3189L4.7425 17.2583ZM4.7425 4.7425C8.19864 1.28636 13.8021 1.28636 17.2583 4.7425L18.3189 3.68184C14.277 -0.360091 7.72376 -0.360091 3.68184 3.68184L4.7425 4.7425Z" fill="#295576"/>
</svg>
