<svg width="22" height="22" viewBox="0 0 22 22" fill="none" xmlns="http://www.w3.org/2000/svg">
<path d="M15.7232 12.2837C16.0414 12.0185 16.0844 11.5456 15.8192 11.2274C15.554 10.9092 15.0811 10.8662 14.7629 11.1314L15.7232 12.2837ZM11.0004 15.2431L10.5202 15.8193C10.7984 16.051 11.2024 16.051 11.4805 15.8193L11.0004 15.2431ZM7.23783 11.1314C6.91962 10.8662 6.4467 10.9092 6.18152 11.2274C5.91635 11.5456 5.95934 12.0185 6.27755 12.2837L7.23783 11.1314ZM11.7504 6.75775C11.7504 6.34354 11.4146 6.00775 11.0004 6.00775C10.5861 6.00775 10.2504 6.34354 10.2504 6.75775H11.7504ZM14.7629 11.1314L10.5202 14.6669L11.4805 15.8193L15.7232 12.2837L14.7629 11.1314ZM11.4805 14.6669L7.23783 11.1314L6.27755 12.2837L10.5202 15.8193L11.4805 14.6669ZM11.7504 15.2431V6.75775H10.2504V15.2431L11.7504 15.2431ZM17.2583 17.2583C13.8021 20.7144 8.19864 20.7144 4.7425 17.2583L3.68184 18.3189C7.72376 22.3609 14.277 22.3609 18.3189 18.3189L17.2583 17.2583ZM4.7425 17.2583C1.28636 13.8021 1.28636 8.19864 4.7425 4.7425L3.68184 3.68184C-0.360091 7.72376 -0.360091 14.277 3.68184 18.3189L4.7425 17.2583ZM4.7425 4.7425C8.19864 1.28636 13.8021 1.28636 17.2583 4.7425L18.3189 3.68184C14.277 -0.360091 7.72376 -0.360091 3.68184 3.68184L4.7425 4.7425ZM17.2583 4.7425C20.7144 8.19864 20.7144 13.8021 17.2583 17.2583L18.3189 18.3189C22.3609 14.277 22.3609 7.72376 18.3189 3.68184L17.2583 4.7425Z" fill="black"/>
</svg>
