<svg width="6" height="20" viewBox="0 0 6 20" fill="none" xmlns="http://www.w3.org/2000/svg">
<path d="M2.99961 5.20039C1.67413 5.20039 0.599609 4.12587 0.599609 2.80039C0.599609 1.47491 1.67413 0.400391 2.99961 0.400391C4.32509 0.400391 5.39961 1.47491 5.39961 2.80039C5.39961 4.12587 4.32509 5.20039 2.99961 5.20039Z" fill="black"/>
<path d="M2.99961 12.4004C1.67413 12.4004 0.599609 11.3259 0.599609 10.0004C0.599609 8.67491 1.67413 7.60039 2.99961 7.60039C4.32509 7.60039 5.39961 8.67491 5.39961 10.0004C5.39961 11.3259 4.32509 12.4004 2.99961 12.4004Z" fill="black"/>
<path d="M2.99961 19.6004C1.67413 19.6004 0.599609 18.5259 0.599609 17.2004C0.599609 15.8749 1.67413 14.8004 2.99961 14.8004C4.32509 14.8004 5.39961 15.8749 5.39961 17.2004C5.39961 18.5259 4.32509 19.6004 2.99961 19.6004Z" fill="black"/>
</svg>
